<svg width="32" height="32" viewBox="0 0 32 32" fill="none" xmlns="http://www.w3.org/2000/svg">
<path d="M13.3684 14.8086V2.5C13.3684 1.39543 14.2638 0.5 15.3684 0.5H16.6316C17.7361 0.5 18.6316 1.39543 18.6316 2.5V14.8086C18.6316 15.9132 19.527 16.8086 20.6316 16.8086H23.4954C24.3988 16.8086 24.8391 17.9115 24.1842 18.5336L17.3775 25C16.6056 25.7333 15.3944 25.7333 14.6225 25L7.81577 18.5336C7.16087 17.9115 7.6012 16.8086 8.50452 16.8086H11.3684C12.473 16.8086 13.3684 15.9132 13.3684 14.8086Z" fill="white"/>
<path d="M0.5 30C0.5 29.1716 1.17157 28.5 2 28.5H30C30.8284 28.5 31.5 29.1716 31.5 30C31.5 30.8284 30.8284 31.5 30 31.5H2C1.17157 31.5 0.5 30.8284 0.5 30Z" fill="white"/>
<path d="M13.3684 14.8086V2.5C13.3684 1.39543 14.2638 0.5 15.3684 0.5H16.6316C17.7361 0.5 18.6316 1.39543 18.6316 2.5V14.8086C18.6316 15.9132 19.527 16.8086 20.6316 16.8086H23.4954C24.3988 16.8086 24.8391 17.9115 24.1842 18.5336L17.3775 25C16.6056 25.7333 15.3944 25.7333 14.6225 25L7.81577 18.5336C7.16087 17.9115 7.6012 16.8086 8.50452 16.8086H11.3684C12.473 16.8086 13.3684 15.9132 13.3684 14.8086Z" stroke="#000577" stroke-linecap="round" stroke-linejoin="round"/>
<path d="M0.5 30C0.5 29.1716 1.17157 28.5 2 28.5H30C30.8284 28.5 31.5 29.1716 31.5 30C31.5 30.8284 30.8284 31.5 30 31.5H2C1.17157 31.5 0.5 30.8284 0.5 30Z" stroke="#000577" stroke-linecap="round" stroke-linejoin="round"/>
<path d="M11 19H21L16 23.5L11 19Z" fill="#A8ABFF" stroke="#A8ABFF" stroke-linecap="round" stroke-linejoin="round"/>
</svg>
