<svg width="32" height="32" viewBox="0 0 32 32" fill="none" xmlns="http://www.w3.org/2000/svg">
<g clip-path="url(#clip0)">
<path d="M22.9843 3.83775L25.2132 11.1584C25.4066 11.7933 24.8995 12.4284 24.192 12.4427C18.0433 12.5675 15.113 12.9019 15.5628 16.8503C16.2494 20.5278 10.0257 20.5073 2.71472 20.8717C1.76291 20.9192 1.19602 19.8751 1.81137 19.1931L4.21738 16.5265C4.65848 16.0376 4.50785 15.2954 3.90655 14.9951L0.564914 13.3262C-0.381594 12.8535 -0.0727986 11.5476 1.00149 11.4997C7.78709 11.1974 13.3764 11.0182 12.7254 7.53106C12.2618 3.46086 15.3898 3.23106 21.9328 3.1125C22.419 3.10368 22.8514 3.40139 22.9843 3.83775Z" fill="#A8ABFF"/>
<path d="M31.5014 31.5L21.5014 0.5M14.501 14.9842L13.0015 10" stroke="#000577" stroke-linecap="round" stroke-linejoin="round"/>
</g>
<defs>
<clipPath id="clip0">
<rect width="32" height="32" fill="white"/>
</clipPath>
</defs>
</svg>
