<svg width="32" height="32" viewBox="0 0 32 32" fill="none" xmlns="http://www.w3.org/2000/svg">
<path d="M12.5 12.5001L2.4375 12.5001C1.36745 12.5001 0.5 13.694 0.5 15.1668L0.5 16.8333C0.5 18.3061 1.36745 19.5 2.4375 19.5L12.5 19.5M12.5 12.5001L12.5 2.4375C12.5 1.36745 13.6939 0.5 15.1667 0.5L16.8334 0.5C18.3061 0.5 19.5 1.36745 19.5 2.4375L19.5 12.5001M12.5 12.5001L12.5 19.5M19.5 12.5001L29.5625 12.5001C30.6326 12.5001 31.5 13.6941 31.5 15.1668V16.8333C31.5 18.3061 30.6326 19.5 29.5625 19.5L19.5 19.5M19.5 12.5001L19.5 19.5M19.5 19.5L19.5 29.5625C19.5 30.6326 18.3061 31.5 16.8333 31.5L15.1666 31.5C13.6939 31.5 12.5 30.6326 12.5 29.5625L12.5 19.5" stroke="#000577" stroke-linecap="round" stroke-linejoin="round"/>
</svg>
